<svg width="1440" height="1514" viewBox="0 0 1440 1514" fill="none" xmlns="http://www.w3.org/2000/svg">
<path d="M158.828 692.342C119.971 706.166 -32.0136 752.773 -73 758.567L-36 1103H729.5H1474C1474 464.313 1461.14 875.769 1449.19 873.734C1434.26 871.19 1379.99 807.231 1362.07 791.969C1344.15 776.707 1292.5 725.801 1268.98 692.342C1205.28 601.688 1091.84 604.226 1041.16 636.211C994.635 665.575 893.858 727.619 838.92 758.567C783.764 789.638 685.549 807.231 634.274 807.231C583 807.231 522.602 781.795 480.288 743.215C424.489 692.342 406.92 636.211 335.966 636.211C296.465 636.211 190.137 681.203 158.828 692.342Z" fill="#7D91C5"/>
<path d="M171.5 1023.21C132.643 1037.04 18.9864 1048.21 -22 1054V1213V1370.5C-22 1370.5 385.599 1641.87 574.768 1435.89C763.937 1229.91 1464.5 1398.83 1464.5 1398.83C1464.5 760.148 1461.14 1089.26 1449.19 1087.23C1434.26 1084.68 1338 1023.54 1338 1000C1338 943.869 1261.01 1056.67 1237.5 1023.21C1173.79 932.556 1049.18 991.226 998.5 1023.21C951.971 1052.58 897.664 992.263 842.726 1023.21C787.569 1054.28 648.774 962.5 597.5 962.5C546.226 962.5 505.314 967.579 463 929C407.201 878.126 392 1000 336 1000C227.623 1000 202.809 1012.07 171.5 1023.21Z" fill="#7D91C5"/>
<path d="M822.832 146.971C771.235 123.868 736.516 10.2775 725.606 -43.63L1459.13 -85.9858V275.964C1433.3 278.05 1371.92 280.97 1333.03 275.964C1284.41 269.707 1097.18 146.971 1032.69 146.971C968.19 146.971 887.329 175.85 822.832 146.971Z" fill="#FDA43B" fill-opacity="0.5"/>
<path d="M640.467 5.48871C601.513 -53.757 568.368 -303.435 584.599 -332L-110.428 -121.995C-122.046 -97.3096 -166.296 -86.5537 -158.608 5.48871C-150.92 97.5311 -467.754 709.031 -195.074 693.162C77.6057 677.292 68.3796 593.185 217.533 593.185C366.687 593.185 317.044 756.639 549.745 756.639C758.592 756.639 828.575 589.482 1043.34 593.185C1258.1 596.887 1217.09 794.726 1416.48 816.414C1575.98 833.764 1514.2 461.116 1447.74 341.391C1419.21 291.49 1441.9 231.68 1350.87 241.413C1237.08 253.58 1074.09 147.784 1019.76 125.567C965.428 103.35 855.741 107.582 781.933 107.582C708.125 107.582 689.16 79.5458 640.467 5.48871Z" stroke="#FDA43B" stroke-width="10"/>
<path d="M744.606 86.6399C707.071 33.3188 675.133 -191.392 690.773 -217.1L21.0666 -28.0957C9.87195 -5.87859 -32.7666 3.80173 -25.3583 86.6399C-17.9501 169.478 -323.242 719.828 -60.4963 705.545C202.25 691.263 193.36 615.566 337.08 615.566C480.8 615.566 432.965 762.675 657.188 762.675C858.427 762.675 925.861 612.234 1132.8 615.566C1339.74 618.899 1300.22 796.953 1492.35 816.472C1646.04 832.088 1586.51 496.705 1522.47 388.951C1494.98 344.041 1516.84 290.212 1429.13 298.972C1319.49 309.922 1162.43 214.706 1110.08 194.71C1057.73 174.715 952.037 178.524 880.917 178.524C809.798 178.524 791.525 153.291 744.606 86.6399Z" stroke="#00008D" stroke-width="8"/>
</svg>
