<svg width="1440" height="1250" viewBox="0 0 1440 1250" fill="none" xmlns="http://www.w3.org/2000/svg">
<path d="M822.831 146.971C771.234 123.868 736.515 10.2775 725.605 -43.63L1459.13 -85.9858V275.964C1433.3 278.05 1371.92 280.97 1333.03 275.964C1284.41 269.707 1097.18 146.971 1032.69 146.971C968.189 146.971 887.328 175.85 822.831 146.971Z" fill="#FDA43B" fill-opacity="0.5"/>
<path d="M1514.5 813.5C1674.01 830.851 1514.2 461.116 1447.74 341.391C1419.21 291.49 1441.9 231.68 1350.87 241.413C1237.08 253.58 1074.09 147.784 1019.76 125.567C965.428 103.35 855.741 107.582 781.933 107.582C708.125 107.582 689.16 79.5458 640.467 5.48871C601.513 -53.757 568.368 -303.435 584.599 -332L-110.428 -121.995C-122.046 -97.3096 -166.296 -86.5537 -158.608 5.48871C-150.92 97.5311 -467.754 709.031 -195.074 693.162" stroke="#FDA43B" stroke-width="10"/>
<path d="M690.773 -217.1C675.133 -191.392 707.071 33.3188 744.606 86.6399C791.525 153.291 809.799 178.524 880.918 178.524C952.037 178.524 1057.73 174.715 1110.08 194.71C1162.43 214.706 1319.49 309.922 1429.13 298.972C1516.84 290.212 1494.98 344.041 1522.47 388.951" stroke="#00008D" stroke-width="8"/>
<path d="M1560.5 755C1626.96 874.726 1575.98 1261.76 1416.48 1244.41C1217.09 1222.73 1258.1 1024.89 1043.34 1021.18C828.575 1017.48 758.592 1184.64 549.745 1184.64C317.044 1184.64 366.687 1021.18 217.534 1021.18C68.3797 1021.18 77.6058 1105.29 -195.074 1121.16" stroke="#FDA43B" stroke-width="10"/>
<path d="M1492.35 1244.47C1300.22 1224.95 1339.74 1046.9 1132.8 1043.57C925.861 1040.23 858.427 1190.68 657.189 1190.68C432.966 1190.68 480.8 1043.57 337.08 1043.57C193.36 1043.57 202.25 1119.26 -60.4961 1133.55" stroke="#00008D" stroke-width="8"/>
</svg>
