<svg width="1440" height="2531" viewBox="0 0 1440 2531" fill="none" xmlns="http://www.w3.org/2000/svg">
<path d="M688.632 1407.22C368.447 1317.52 145.576 979.334 1.03443 868.917C-183.387 1180.22 -634.303 2181.42 -297.847 2256.96C122.722 2351.38 275.473 2404.36 428.244 2268.59C555.39 2155.6 1068.5 2037.49 1079.4 1810.4C1092.9 1529.1 1088.86 1519.35 688.632 1407.22Z" fill="#FED5A5"/>
<path d="M1417.89 183.17C1607.64 227.352 1895.69 37.9546 1893.29 14.2802L2015 986.236C1974.43 1091.37 1646.08 1018.13 1600.51 1202.92C1523.85 1513.86 926.28 1017.2 665.609 1069.47C404.938 1121.74 194.924 489.222 358.973 438.443C725.062 325.127 766.491 74.4707 945.483 14.2796C1143.38 -52.2697 1200.6 132.578 1417.89 183.17Z" fill="#7D91C5" fill-opacity="0.7"/>
</svg>
