<svg width="1440" height="822" viewBox="0 0 1440 822" fill="none" xmlns="http://www.w3.org/2000/svg">
<path d="M822.832 146.971C771.235 123.868 736.516 10.2775 725.606 -43.63L1459.13 -85.9858V275.964C1433.3 278.05 1371.92 280.97 1333.03 275.964C1284.41 269.707 1097.18 146.971 1032.69 146.971C968.19 146.971 887.329 175.85 822.832 146.971Z" fill="#FDA43B" fill-opacity="0.5"/>
<path d="M640.467 5.48871C601.513 -53.757 568.368 -303.435 584.599 -332L-110.428 -121.995C-122.046 -97.3096 -166.296 -86.5537 -158.608 5.48871C-150.92 97.5311 -467.754 709.031 -195.074 693.162C77.6057 677.292 68.3796 593.185 217.533 593.185C366.687 593.185 317.044 756.639 549.745 756.639C758.592 756.639 828.575 589.482 1043.34 593.185C1258.1 596.887 1217.09 794.726 1416.48 816.414C1575.98 833.764 1514.2 461.116 1447.74 341.391C1419.21 291.49 1441.9 231.68 1350.87 241.413C1237.08 253.58 1074.09 147.784 1019.76 125.567C965.428 103.35 855.741 107.582 781.933 107.582C708.125 107.582 689.16 79.5458 640.467 5.48871Z" stroke="#FDA43B" stroke-width="10"/>
<path d="M690.773 -217.1C675.133 -191.392 707.071 33.3188 744.606 86.6399C791.525 153.291 809.799 178.524 880.918 178.524C952.037 178.524 1057.73 174.715 1110.08 194.71C1162.43 214.706 1319.49 309.922 1429.13 298.972C1516.84 290.212 1494.98 344.041 1522.47 388.951M1492.35 816.472C1300.22 796.953 1339.74 618.899 1132.8 615.566C925.861 612.234 858.427 762.675 657.189 762.675C432.966 762.675 480.8 615.566 337.08 615.566C193.36 615.566 202.25 691.263 -60.4961 705.545" stroke="#00008D" stroke-width="8"/>
</svg>
